<svg xmlns="http://www.w3.org/2000/svg" viewBox="0 0 290 71"><path fill="#1fd58f" d="M21.20 70.80L21.20 70.80Q16.40 70.80 11.05 68.90Q5.70 67.00 1.80 63.80L1.80 63.80L9.40 53.20Q16.20 58.20 21.60 58.20L21.60 58.20Q24.30 58.20 25.45 57.45Q26.60 56.70 26.60 55.20L26.60 55.20Q26.60 54.20 25.80 53.45Q25 52.70 23.65 52.05Q22.30 51.40 20.60 50.80Q18.90 50.20 17 49.40L17 49.40Q14.80 48.50 12.55 47.25Q10.30 46.00 8.50 44.20Q6.70 42.40 5.55 40.05Q4.40 37.70 4.40 34.60L4.40 34.60Q4.40 30.90 5.85 27.90Q7.30 24.90 9.90 22.80Q12.50 20.70 16.15 19.55Q19.80 18.40 24.20 18.40L24.20 18.40Q30.40 18.40 34.85 20.45Q39.30 22.50 42.60 25.00L42.60 25.00L35 35.20Q32.30 33.20 29.70 32.10Q27.10 31.00 24.80 31.00L24.80 31.00Q20.40 31.00 20.40 33.80L20.40 33.80Q20.40 34.80 21.15 35.50Q21.90 36.20 23.20 36.80Q24.50 37.40 26.20 37.95Q27.90 38.50 29.80 39.20L29.80 39.20Q32 40.00 34.30 41.20Q36.60 42.40 38.45 44.15Q40.30 45.90 41.45 48.35Q42.60 50.80 42.60 54.20L42.60 54.20Q42.60 57.70 41.20 60.75Q39.80 63.80 37.10 66.05Q34.40 68.30 30.40 69.55Q26.40 70.80 21.20 70.80ZM73.20 70.80L73.20 70.80Q68.40 70.80 63.90 69.05Q59.40 67.30 55.95 63.95Q52.50 60.60 50.45 55.70Q48.40 50.80 48.40 44.60L48.40 44.60Q48.40 38.40 50.45 33.50Q52.50 28.60 55.95 25.25Q59.40 21.90 63.90 20.15Q68.40 18.40 73.20 18.40L73.20 18.40Q78 18.40 82.45 20.15Q86.90 21.90 90.35 25.25Q93.80 28.60 95.90 33.50Q98 38.40 98 44.60L98 44.60Q98 50.80 95.90 55.70Q93.80 60.60 90.35 63.95Q86.90 67.30 82.45 69.05Q78 70.80 73.20 70.80ZM73.20 57.00L73.20 57.00Q77.10 57.00 78.75 53.65Q80.40 50.30 80.40 44.60L80.40 44.60Q80.40 38.90 78.75 35.55Q77.10 32.20 73.20 32.20L73.20 32.20Q69.30 32.20 67.65 35.55Q66 38.90 66 44.60L66 44.60Q66 50.30 67.65 53.65Q69.30 57.00 73.20 57.00ZM122.40 70.80L122.40 70.80Q118 70.80 115.05 69.45Q112.10 68.10 110.30 65.60Q108.50 63.10 107.75 59.65Q107 56.20 107 52.00L107 52.00L107 0L124.20 0L124.20 52.60Q124.20 55.20 125.15 56.10Q126.10 57.00 127 57.00L127 57.00Q127.50 57.00 127.85 57.00Q128.20 57.00 128.80 56.80L128.80 56.80L130.80 69.40Q129.40 70.00 127.35 70.40Q125.30 70.80 122.40 70.80ZM168.40 69.60L148.60 69.60L132.20 19.60L149.40 19.60L154.80 41.40Q156.60 48.90 158.40 57.00L158.40 57.00L158.80 57.00Q160.60 48.90 162.40 41.40L162.40 41.40L167.80 19.60L184.20 19.60L168.40 69.60ZM213.40 70.80L213.40 70.80Q207.90 70.80 203.20 69.05Q198.50 67.30 195.05 63.95Q191.60 60.60 189.60 55.70Q187.60 50.80 187.60 44.60L187.60 44.60Q187.60 38.50 189.65 33.65Q191.70 28.80 195.05 25.40Q198.40 22.00 202.70 20.20Q207 18.40 211.60 18.40L211.60 18.40Q217.10 18.40 221.20 20.30Q225.30 22.20 228 25.50Q230.70 28.80 232.05 33.20Q233.40 37.60 233.40 42.60L233.40 42.60Q233.40 44.90 233.15 46.90Q232.90 48.90 232.70 49.80L232.70 49.80L204.20 49.80Q205.40 54.30 208.50 56.05Q211.60 57.80 215.80 57.80L215.80 57.80Q218.40 57.80 220.85 57.05Q223.30 56.30 226 54.80L226 54.80L231.60 65.00Q227.50 67.90 222.55 69.35Q217.60 70.80 213.40 70.80ZM204 38.60L204 38.60L218.80 38.60Q218.80 35.70 217.35 33.55Q215.90 31.40 212 31.40L212 31.40Q209.10 31.40 206.95 33.10Q204.80 34.80 204 38.60ZM261 70.80L261 70.80Q256.30 70.80 252.55 69.00Q248.80 67.20 246.15 63.80Q243.50 60.40 242.05 55.55Q240.60 50.70 240.60 44.60L240.60 44.60Q240.60 38.50 242.35 33.60Q244.10 28.70 246.95 25.35Q249.80 22.00 253.50 20.20Q257.20 18.40 261 18.40L261 18.40Q265.10 18.40 267.70 19.75Q270.30 21.10 272.60 23.40L272.60 23.40L272 16.20L272 0L289.20 0L289.20 69.60L275.20 69.60L274 65.00L273.60 65.00Q271 67.60 267.65 69.20Q264.30 70.80 261 70.80ZM265.60 56.80L265.60 56.80Q267.60 56.80 269.10 56.05Q270.60 55.30 272 53.20L272 53.20L272 34.80Q270.50 33.40 268.70 32.90Q266.90 32.40 265.20 32.40L265.20 32.40Q262.50 32.40 260.35 35.10Q258.20 37.80 258.20 44.40L258.20 44.40Q258.20 51.20 260.15 54.00Q262.10 56.80 265.60 56.80Z"></path></svg>
