<?xml version="1.0" standalone="no"?>
<!DOCTYPE svg PUBLIC "-//W3C//DTD SVG 20010904//EN"
 "http://www.w3.org/TR/2001/REC-SVG-20010904/DTD/svg10.dtd">
<svg version="1.0" xmlns="http://www.w3.org/2000/svg"
 width="300.000000pt" height="300.000000pt" viewBox="0 0 300.000000 300.000000"
 preserveAspectRatio="xMidYMid meet">
<metadata>
Created by potrace 1.11, written by Peter Selinger 2001-2013
</metadata>
<g transform="translate(0.000000,300.000000) scale(0.100000,-0.100000)"
fill="#000000" stroke="none">
<path d="M1296 2985 c-638 -91 -1130 -557 -1268 -1199 -31 -145 -31 -427 0
-572 32 -149 65 -243 138 -389 142 -289 370 -517 659 -660 144 -71 238 -105
389 -137 147 -31 427 -31 576 1 610 130 1049 571 1182 1186 31 144 31 426 0
571 -131 613 -580 1061 -1186 1185 -132 27 -355 33 -490 14z m495 -574 c83
-21 228 -90 326 -154 l61 -40 -105 -141 c-58 -78 -111 -147 -117 -154 -10 -10
-28 -3 -92 36 -111 66 -197 93 -300 93 -129 0 -192 -39 -201 -123 -10 -86 56
-138 286 -224 320 -119 449 -215 516 -384 23 -59 31 -202 15 -282 -41 -208
-196 -358 -445 -430 -71 -20 -100 -23 -265 -22 -172 0 -191 2 -274 28 -50 15
-123 41 -163 57 -76 32 -243 135 -243 150 0 10 220 319 227 319 3 0 37 -21 75
-47 145 -96 295 -141 429 -130 113 10 172 52 184 134 13 86 -50 141 -256 223
-74 29 -183 78 -244 108 -184 93 -298 224 -326 377 -20 108 7 250 66 350 76
130 242 234 432 270 106 20 311 13 414 -14z"/>
</g>
</svg>
